# xmcd
#
# Track frame offsets:
#	225
#	8221
#	18209
#	29987
#	45635
#	55436
#	81949
#	88504
#	144004
#	167450
#	183016
#	191077
#	204994
#	257353
#
# Disc length: 3492 seconds
#
# Revision: 0
# Processed by: cddbd v1.5.2PL0 Copyright (c) Steve Scherf et al.
# Submitted via: EasyCDDAExtractor 16.0.6.1
#
DISCID=ac0da10e
DTITLE=Βυζαντινή χορ. Α. Κυρίλλου-Μεθοδίου - Θεαρχίω νεύματι-Κυρίλλειο κέντρο
DYEAR=2002
DGENRE=Βυζ. Εκκλησιαστική
TTITLE0=Την Θείαν σου Εικόνα [απολυτίκιον Παναγίας Πορταϊτίσσης, ήχος α']
TTITLE1=Αναβόησον Δαυΐδ [κάθισμα Κοιμήσεως της Θεοτόκου, Νε Να Νω]
TTITLE2=Σήμερον πιστοί χορεύσωμεν [προσόμοιο Εσπερινού Εισοδίων, ήχος α']
TTITLE3=Δαυϊτικήν ωδήν [ιδιόμελο Αποστίχων Κοιμήσεως Θεοτόκου, ήχος λέγετος]
TTITLE4=Κατακόσμησον τον Νυμφώνα σου [ιδιόμελο Εσπερ. Υπαπαντής, ήχος βαρύς]
TTITLE5=Δεύτε άπαντες πιστοί [δοξαστ. Αποστίχων Γενεθλίων της Θεοτόκου, ήχ. πλ
TTITLE5=α']
TTITLE6=Ο πάντιμος χορός [κάθισμα Κοιμήσεως της Θεοτόκου, ήχος β']
TTITLE7=Απεστάλη εξ ουρανού [δοξαστ. Εσπερ. Ευαγγελισμού, Χαρ. Ταλιαδώρου, πλ.
TTITLE7=β']
TTITLE8=Ακατάληπτον εστίν [μεγαλυνάρια Υπαπαντής, ήχος γ']
TTITLE9=Θεοτόκε Παρθένε [π. Νικολ. Ιωσηφίδη, πρ/ψάλτου ΚΠόλεως, ήχ. πλ΄. β', μ
TTITLE9=ονωδ.]
TTITLE10=Εν τη γεννήσει σου [καθιστικό Κοιμήσεως Θεοτόκου, ήχος γ']
TTITLE11=Αι γενεαί πάσαι [θ' ωδή, Κοιμήσεως της Θεοτόκου, ήχος α']
TTITLE12=Άνωθεν οι προφήται [Αγίου Ιωάννου Κουκουζέλους, ήχος βαρύς]
TTITLE13=Χαίρε Νύμφη [Χαριλάου Ταλιαδώρου, ήχος πλ. α', μονωδία]
EXTD=
EXTT0=
EXTT1=
EXTT2=
EXTT3=
EXTT4=
EXTT5=
EXTT6=
EXTT7=
EXTT8=
EXTT9=
EXTT10=
EXTT11=
EXTT12=
EXTT13=
PLAYORDER=
